<?xml version="1.0" encoding="UTF-8" standalone="no"?>
<svg width="30px" height="30px" viewBox="0 0 30 30" version="1.1" xmlns="http://www.w3.org/2000/svg" xmlns:xlink="http://www.w3.org/1999/xlink" xmlns:sketch="http://www.bohemiancoding.com/sketch/ns">
    <!-- Generator: Sketch 3.0.4 (8053) - http://www.bohemiancoding.com/sketch -->
    <title>twitter 4</title>
    <desc>Created with Sketch.</desc>
    <defs></defs>
    <g id="Comp" stroke="none" stroke-width="1" fill="none" fill-rule="evenodd" sketch:type="MSPage">
        <g id="Tablet-CS" sketch:type="MSArtboardGroup" transform="translate(-333.000000, -2653.000000)" fill="#DDDDDD">
            <g id="twitter-4" sketch:type="MSLayerGroup" transform="translate(334.000000, 2654.000000)">
                <path d="M14.0204878,0.682585366 C6.67731707,0.682585366 0.703414634,6.6564878 0.703414634,13.9996585 C0.703414634,21.3424878 6.67731707,27.3163902 14.0204878,27.3163902 C21.3633171,27.3163902 27.336878,21.3424878 27.336878,13.9996585 C27.336878,6.6564878 21.3633171,0.682585366 14.0204878,0.682585366 L14.0204878,0.682585366 Z M14.0204878,27.9993171 C6.30102439,27.9993171 0.0204878049,21.719122 0.0204878049,13.9996585 C0.0204878049,6.27985366 6.30102439,-0.000341463415 14.0204878,-0.000341463415 C21.7399512,-0.000341463415 28.0198049,6.27985366 28.0198049,13.9996585 C28.0198049,21.719122 21.7399512,27.9993171 14.0204878,27.9993171 L14.0204878,27.9993171 Z" id="Fill-4" stroke="#DDDDDD" sketch:type="MSShapeGroup"></path>
                <g id="icon_angellist" transform="translate(7.000000, 4.666667)" sketch:type="MSShapeGroup">
                    <path d="M-0.0183333333,13.2533333 C-0.0183333333,15.456 1.79666667,17.4906667 3.74,18.2373333 C4.47333333,18.5173333 5.24333333,18.6666667 6.01333333,18.6666667 C10.23,18.6666667 12.8516667,15.4373333 12.8516667,11.2746667 C12.8516667,9.70666667 12.6133333,8.288 10.89,7.85866667 C11.3116667,6.664 12.5216667,3.22933333 12.5216667,2.128 C12.5216667,1.15733333 11.9533333,0.354666667 10.9633333,0.354666667 C9.36833333,0.354666667 7.95666667,5.152 7.49833333,6.30933333 C7.15,5.24533333 5.51833333,0 4.08833333,0 C2.97,0 2.45666667,0.84 2.45666667,1.88533333 C2.45666667,3.06133333 3.70333333,6.552 4.125,7.784 C3.905,7.70933333 3.64833333,7.63466667 3.41,7.63466667 C2.56666667,7.63466667 1.54,8.69866667 1.54,9.55733333 C1.54,9.87466667 1.705,10.3413333 1.83333333,10.64 C0.495,10.9946667 -0.0183333333,11.8906667 -0.0183333333,13.2533333 L-0.0183333333,13.2533333 Z M1.155,13.16 C1.155,12.6186667 1.50333333,11.76 2.145,11.76 C2.54833333,11.76 4.235,13.9626667 4.235,14.4293333 C4.235,14.5973333 3.96,14.728 3.81333333,14.728 C3.26333333,14.728 2.75,14.056 2.45666667,13.6453333 C2.255,13.3653333 2.05333333,13.1226667 1.85166667,12.8613333 C1.65,13.0666667 1.52166667,13.2533333 1.52166667,13.552 C1.52166667,14.6906667 2.98833333,16.016 4.08833333,16.016 C4.80333333,16.016 5.46333333,15.456 5.46333333,14.7093333 C5.46333333,14.6346667 5.46333333,14.56 5.445,14.4853333 C5.57333333,14.4853333 5.73833333,14.504 5.86666667,14.4666667 C5.90333333,15.456 6.19666667,16.632 7.35166667,16.7253333 C7.35166667,16.688 7.425,16.464 7.425,16.4453333 C7.425,15.8106667 7.04,15.2506667 7.04,14.616 C7.04,13.5893333 7.81,12.5813333 8.59833333,12.0026667 C8.89166667,11.7786667 9.20333333,11.648 9.55166667,11.5173333 C9.9,11.3866667 10.2666667,11.2186667 10.5416667,10.9573333 C10.5233333,10.752 10.4866667,10.5466667 10.34,10.3786667 C10.2116667,10.2293333 10.12,10.1733333 9.93666667,10.1733333 C8.94666667,10.1733333 5.64666667,10.3226667 5.64666667,8.71733333 C5.64666667,8.60533333 5.64666667,8.4 5.775,8.344 C5.885,8.232 6.14166667,8.232 6.27,8.232 C7.425,8.232 10.34,8.53066667 11.2016667,9.296 C11.66,9.70666667 11.6416667,10.64 11.6416667,11.2186667 C11.6416667,12.88 11.1833333,14.4106667 10.0833333,15.6613333 C9.03833333,16.8186667 7.73666667,17.4346667 6.17833333,17.4346667 C4.05166667,17.4346667 2.23666667,16.24 1.43,14.224 C1.265,13.888 1.155,13.5333333 1.155,13.16 L1.155,13.16 Z M2.76833333,9.66933333 C2.76833333,9.38933333 3.22666667,8.904 3.50166667,8.904 C4.345,8.904 5.31666667,11.0693333 5.57333333,11.76 C5.665,11.984 5.90333333,12.5813333 5.90333333,12.824 C5.90333333,13.0106667 5.73833333,13.2346667 5.51833333,13.2346667 C4.76666667,13.2346667 2.76833333,10.4346667 2.76833333,9.66933333 L2.76833333,9.66933333 Z M3.575,1.75466667 C3.575,1.512 3.70333333,1.176 3.97833333,1.176 C4.51,1.176 5.09666667,3.08 5.24333333,3.472 L6.49,7.13066667 C6.25166667,7.112 5.97666667,7.07466667 5.72,7.07466667 C5.555,7.07466667 5.35333333,7.09333333 5.225,7.18666667 C4.80333333,6.14133333 3.575,2.81866667 3.575,1.75466667 L3.575,1.75466667 Z M6.56333333,11.088 C6.91166667,11.2 7.26,11.2373333 7.62666667,11.312 C7.35166667,11.5173333 7.13166667,11.7413333 6.89333333,12.0026667 C6.80166667,11.704 6.67333333,11.3866667 6.56333333,11.088 L6.56333333,11.088 Z M8.45166667,7.35466667 L9.625,3.93866667 C9.77166667,3.49066667 10.3766667,1.58666667 10.9633333,1.58666667 C11.275,1.58666667 11.3483333,1.904 11.3483333,2.16533333 C11.3483333,2.856 9.97333333,6.70133333 9.66166667,7.56 L8.45166667,7.35466667 L8.45166667,7.35466667 Z" id="Shape"></path>
                </g>
            </g>
        </g>
    </g>
</svg>