<?xml version="1.0" encoding="UTF-8" standalone="no"?>
<svg width="30px" height="30px" viewBox="0 0 30 30" version="1.1" xmlns="http://www.w3.org/2000/svg" xmlns:xlink="http://www.w3.org/1999/xlink" xmlns:sketch="http://www.bohemiancoding.com/sketch/ns">
    <!-- Generator: Sketch 3.0.4 (8053) - http://www.bohemiancoding.com/sketch -->
    <title>twitter 3</title>
    <desc>Created with Sketch.</desc>
    <defs></defs>
    <g id="Comp" stroke="none" stroke-width="1" fill="none" fill-rule="evenodd" sketch:type="MSPage">
        <g id="Tablet-CS" sketch:type="MSArtboardGroup" transform="translate(-369.000000, -2653.000000)" fill="#DDDDDD">
            <g id="twitter-3" sketch:type="MSLayerGroup" transform="translate(370.000000, 2654.000000)">
                <path d="M14.0204878,0.682585366 C6.67731707,0.682585366 0.703414634,6.6564878 0.703414634,13.9996585 C0.703414634,21.3424878 6.67731707,27.3163902 14.0204878,27.3163902 C21.3633171,27.3163902 27.336878,21.3424878 27.336878,13.9996585 C27.336878,6.6564878 21.3633171,0.682585366 14.0204878,0.682585366 L14.0204878,0.682585366 Z M14.0204878,27.9993171 C6.30102439,27.9993171 0.0204878049,21.719122 0.0204878049,13.9996585 C0.0204878049,6.27985366 6.30102439,-0.000341463415 14.0204878,-0.000341463415 C21.7399512,-0.000341463415 28.0198049,6.27985366 28.0198049,13.9996585 C28.0198049,21.719122 21.7399512,27.9993171 14.0204878,27.9993171 L14.0204878,27.9993171 Z" id="Fill-4" stroke="#DDDDDD" sketch:type="MSShapeGroup"></path>
                <path d="M20.1664878,10.8523902 C19.7140488,11.0528293 19.2278049,11.1883902 18.718,11.2491707 C19.2394146,10.9370732 19.6392683,10.4433171 19.8267317,9.85463415 C19.339122,10.1435122 18.8002927,10.3531707 18.2245854,10.4655122 C17.766,9.9755122 17.1097073,9.66956098 16.3840976,9.66956098 C14.9919512,9.66956098 13.8627317,10.7987805 13.8627317,12.1912683 C13.8627317,12.3893171 13.8842439,12.5812195 13.9279512,12.7656098 C11.8323902,12.6600976 9.97414634,11.6572195 8.72917073,10.1305366 C8.512,10.5040976 8.38839024,10.9370732 8.38839024,11.3994146 C8.38839024,12.273561 8.83365854,13.0456098 9.5097561,13.4983902 C9.09726829,13.4857561 8.70765854,13.3713659 8.36687805,13.183561 L8.36687805,13.2142927 C8.36687805,14.4370732 9.23658537,15.4563415 10.3907317,15.6871707 C10.1793659,15.7462439 9.95707317,15.7759512 9.7262439,15.7759512 C9.56370732,15.7759512 9.40560976,15.7609268 9.25195122,15.7312195 C9.57292683,16.7330732 10.5034146,17.462439 11.6077073,17.4819024 C10.7441463,18.1586829 9.6562439,18.5616098 8.47546341,18.5616098 C8.27195122,18.5616098 8.07082927,18.5503415 7.87380488,18.5267805 C8.99004878,19.2418049 10.3156098,19.6594146 11.7391707,19.6594146 C16.3793171,19.6594146 18.9150244,15.8172683 18.9150244,12.4842439 C18.9150244,12.3746341 18.9129756,12.2653659 18.9081951,12.1578049 C19.4012683,11.802 19.8298049,11.3577561 20.1664878,10.8523902" id="Fill-5" sketch:type="MSShapeGroup"></path>
            </g>
        </g>
    </g>
</svg>