<?xml version="1.0" encoding="UTF-8" standalone="no"?>
<svg width="30px" height="30px" viewBox="0 0 30 30" version="1.1" xmlns="http://www.w3.org/2000/svg" xmlns:xlink="http://www.w3.org/1999/xlink" xmlns:sketch="http://www.bohemiancoding.com/sketch/ns">
    <!-- Generator: Sketch 3.0.4 (8053) - http://www.bohemiancoding.com/sketch -->
    <title>facebook 3</title>
    <desc>Created with Sketch.</desc>
    <defs></defs>
    <g id="Comp" stroke="none" stroke-width="1" fill="none" fill-rule="evenodd" sketch:type="MSPage">
        <g id="Tablet-CS" sketch:type="MSArtboardGroup" transform="translate(-405.000000, -2653.000000)" fill="#DDDDDD">
            <g id="facebook-3" sketch:type="MSLayerGroup" transform="translate(406.000000, 2654.000000)">
                <path d="M14.0037561,0.682926829 C6.66092683,0.682926829 0.68702439,6.65682927 0.68702439,14 C0.68702439,21.3428293 6.66092683,27.3167317 14.0037561,27.3167317 C21.3472683,27.3167317 27.3211707,21.3428293 27.3211707,14 C27.3211707,6.65682927 21.3472683,0.682926829 14.0037561,0.682926829 L14.0037561,0.682926829 Z M14.0037561,27.9996585 C6.28429268,27.9996585 0.00409756098,21.7194634 0.00409756098,14 C0.00409756098,6.28019512 6.28429268,0 14.0037561,0 C21.723561,0 28.0040976,6.28019512 28.0040976,14 C28.0040976,21.7194634 21.723561,27.9996585 14.0037561,27.9996585 L14.0037561,27.9996585 Z" id="Fill-2" stroke="#DDDDDD" sketch:type="MSShapeGroup"></path>
                <path d="M11.0388293,11.918439 L12.3094146,11.918439 L12.3094146,10.6837073 C12.3094146,10.1387317 12.3230732,9.29873171 12.7184878,8.77834146 C13.1354146,8.22756098 13.7073659,7.85331707 14.6914634,7.85331707 C16.2946341,7.85331707 16.9697073,8.0817561 16.9697073,8.0817561 L16.6518049,9.96492683 C16.6518049,9.96492683 16.1225366,9.81126829 15.628439,9.81126829 C15.134,9.81126829 14.6914634,9.9884878 14.6914634,10.4825854 L14.6914634,11.918439 L16.7180488,11.918439 L16.5766829,13.757561 L14.6914634,13.757561 L14.6914634,20.146 L12.3094146,20.146 L12.3094146,13.757561 L11.0388293,13.757561 L11.0388293,11.918439" id="Fill-3" sketch:type="MSShapeGroup"></path>
            </g>
        </g>
    </g>
</svg>