<?xml version="1.0" encoding="utf-8"?>
<!-- Generator: Adobe Illustrator 17.1.0, SVG Export Plug-In . SVG Version: 6.00 Build 0)  -->
<!DOCTYPE svg PUBLIC "-//W3C//DTD SVG 1.1//EN" "http://www.w3.org/Graphics/SVG/1.1/DTD/svg11.dtd">
<svg version="1.1" id="Layer_1" xmlns="http://www.w3.org/2000/svg" xmlns:xlink="http://www.w3.org/1999/xlink" x="0px" y="0px"
	 viewBox="0 0 311.9 83.1" enable-background="new 0 0 311.9 83.1" xml:space="preserve">
<g>
	<path fill="#FFFFFF" d="M0,27.3c0-1.6,1.1-2.8,2.7-2.8c1.6,0,2.8,1.1,2.8,2.8v8.2c3.8-6.7,10.1-11.9,20.5-11.9
		c14.4,0,22.7,9.8,22.7,23.4v32.4c0,1.7-1.1,2.8-2.7,2.8c-1.6,0-2.8-1.1-2.8-2.8V48c0-11.7-6.6-19.4-18-19.4
		C14,28.6,5.5,37.1,5.5,48.9v30.5c0,1.7-1.1,2.8-2.7,2.8c-1.6,0-2.8-1.1-2.8-2.8V27.3z"/>
	<path fill="#FFFFFF" d="M60.9,27.3c0-1.6,1.1-2.8,2.7-2.8c1.6,0,2.8,1.1,2.8,2.8v52.1c0,1.7-1.1,2.8-2.7,2.8
		c-1.6,0-2.8-1.1-2.8-2.8V27.3z"/>
	<path fill="#FFFFFF" d="M79.4,27.3c0-1.6,1.1-2.8,2.7-2.8c1.6,0,2.8,1.1,2.8,2.8v7.8c3.7-5.9,8.8-11.5,18.9-11.5
		c9.9,0,16,5.7,19.2,12.2c3.7-6.3,9.8-12.2,20.5-12.2c13.5,0,21.8,9.5,21.8,23.7v32.1c0,1.7-1.1,2.8-2.7,2.8c-1.6,0-2.8-1.1-2.8-2.8
		V48c0-12.2-6.3-19.4-16.8-19.4c-9.6,0-17.9,7.3-17.9,20v30.7c0,1.7-1.1,2.8-2.7,2.8s-2.8-1.1-2.8-2.8V47.7c0-11.8-6.5-19-16.6-19
		c-10.1,0-18.2,8.9-18.2,20.4v30.4c0,1.7-1.1,2.8-2.7,2.8c-1.6,0-2.8-1.1-2.8-2.8V27.3z"/>
	<path fill="#FFFFFF" d="M177.7,2.8c0-1.7,1.1-2.8,2.7-2.8c1.6,0,2.8,1.1,2.8,2.8v34.9c4.9-7.5,12.1-14,23.4-14
		c13.7,0,27.6,11,27.6,29.5v0.2c0,18.5-13.9,29.7-27.6,29.7c-11.4,0-18.7-6.5-23.4-13.6v9.9c0,1.6-1.1,2.8-2.7,2.8
		c-1.6,0-2.8-1.2-2.8-2.8V2.8z M228.3,53.6v-0.2c0-14.9-10.4-24.5-22.3-24.5c-11.8,0-23.2,9.9-23.2,24.4v0.2
		c0,14.6,11.4,24.4,23.2,24.4C218.4,77.8,228.3,68.8,228.3,53.6z"/>
	<path fill="#FFFFFF" d="M244,2.8c0-1.6,1.1-2.8,2.7-2.8c1.6,0,2.8,1.2,2.8,2.8v76.6c0,1.7-1.1,2.8-2.7,2.8c-1.6,0-2.8-1.1-2.8-2.8
		V2.8z"/>
	<path fill="#FFFFFF" d="M286.7,83.1c-14.9,0-27.8-11.9-27.8-29.6v-0.2c0-16.5,11.6-29.6,26.9-29.6c15.9,0,26.1,13.1,26.1,29.4
		c0,1.3-1.3,2.6-2.7,2.6h-44.5c1,14.1,11.1,22.4,22.3,22.4c8.1,0,13.8-3.3,18.4-7.8c0.4-0.4,1-0.8,1.8-0.8c1.4,0,2.7,1.1,2.7,2.6
		c0,0.6-0.2,1.2-0.9,1.9C303.3,79.4,297,83.1,286.7,83.1z M306,50.7c-0.8-11.5-7.3-22-20.4-22c-11.2,0-19.9,9.5-20.9,22H306z"/>
	<path fill="#FFFFFF" d="M63.1,15.2c1.6,0,2.8-1.3,2.8-2.8c0-3.7,3-6.7,6.7-6.7c3.7,0,6.7,3,6.7,6.7c0,1.6,1.3,2.8,2.8,2.8
		c1.6,0,2.8-1.3,2.8-2.8C84.9,5.5,79.4,0,72.6,0c-6.8,0-12.3,5.5-12.3,12.3C60.2,13.9,61.5,15.2,63.1,15.2z"/>
	<circle fill="#FFFFFF" cx="66.3" cy="12.1" r="6.1"/>
</g>
</svg>
